<svg xmlns="http://www.w3.org/2000/svg" xmlns:xlink="http://www.w3.org/1999/xlink" viewBox="0 0 95.481 65.46713242029475" height="65.46713242029475" width="95.481" data-background-color="#293040" preserveAspectRatio="xMidYMid meet" id="tight-bounds"><g><svg viewBox="0 0 95.481 65.46713242029475" height="65.46713242029475" width="95.481"><g><svg viewBox="0 0 95.481 65.46713242029475" height="65.46713242029475" width="95.481"><g id="textblocktransform"><svg viewBox="0 0 95.481 65.46713242029475" height="65.46713242029475" width="95.481" id="textblock"><g><svg viewBox="0 0 95.481 65.46713242029475" height="65.46713242029475" width="95.481"><g><svg viewBox="0 0 95.481 65.46713242029475" height="65.46713242029475" width="95.481"><g><svg xmlns="http://www.w3.org/2000/svg" xml:space="preserve" viewBox="0.8000001907348633 16.299999237060547 98.29999542236328 67.39999389648438" x="0" y="0" height="65.46713242029475" width="95.481" class="icon-icon-0" data-fill-palette-color="accent" id="icon-0"><path d="M83.8 70.1c0 1-0.8 1.8-1.8 1.8H60.4c-0.6 1.7-2.2 3-4.1 3H43.6c-1.9 0-3.5-1.2-4.1-3H17.9c-1 0-1.8-0.8-1.8-1.8s0.8-1.8 1.8-1.8h23.2c1 0 1.8 0.8 1.8 1.8v0.4c0 0.4 0.3 0.8 0.8 0.8h12.7c0.4 0 0.8-0.3 0.8-0.8v-0.4c0-1 0.8-1.8 1.8-1.8h23.2c0.9 0 1.6 0.8 1.6 1.8m15.3 0v4.7c0 4.9-4 8.9-8.9 8.9H9.7c-4.9 0-8.9-4-8.9-8.9v-4.7c0-1 0.8-1.8 1.8-1.8h5.5V22.1c0-3.2 2.6-5.8 5.8-5.8h72c3.1 0 5.7 2.4 6 5.6v46.4h5.5c1 0 1.7 0.8 1.7 1.8m-3.5 1.7h-5.5c-1 0-1.8-0.8-1.8-1.8V22.2c-0.2-1.4-1.3-2.4-2.5-2.4h-72c-1.3 0-2.3 1-2.3 2.3V70c0 1-0.8 1.8-1.8 1.8H4.4v3c0 3 2.4 5.4 5.4 5.4h80.5c3 0 5.4-2.4 5.4-5.4v-3z m-70-28.5c0.3 0.4 0.8 0.6 1.3 0.6 0.4 0 0.8-0.1 1.1-0.4l8.2-7c0.4-0.3 0.6-0.8 0.6-1.3s-0.2-1-0.6-1.3l-8.2-7c-0.7-0.6-1.8-0.5-2.5 0.2-0.6 0.7-0.5 1.8 0.2 2.5l6.6 5.6-6.6 5.6c-0.6 0.7-0.7 1.8-0.1 2.5M42.8 37h30.3c1 0 1.8-0.8 1.8-1.8s-0.8-1.8-1.8-1.8H42.8c-1 0-1.8 0.8-1.8 1.8s0.8 1.8 1.8 1.8m30.3 7.2H35.2c-1 0-1.8 0.8-1.8 1.8s0.8 1.8 1.8 1.8h37.9c1 0 1.8-0.8 1.8-1.8s-0.9-1.8-1.8-1.8M26.9 58.5H73c1 0 1.8-0.8 1.8-1.8S74 55 73.1 55H26.9c-1 0-1.8 0.8-1.8 1.8s0.9 1.7 1.8 1.7" fill="#c9ad8b" data-fill-palette-color="accent"/></svg></g></svg></g></svg></g></svg></g></svg></g></svg></g><defs/></svg>