<svg xmlns="http://www.w3.org/2000/svg" version="1.1" xmlns:xlink="http://www.w3.org/1999/xlink" xmlns:svgjs="http://svgjs.dev/svgjs" width="1500" height="1500" viewBox="0 0 1500 1500"><rect width="1500" height="1500" fill="#ffffff"></rect><g transform="matrix(0.6666666666666666,0,0,0.6666666666666666,249.39393939393938,662.7963103408225)"><svg viewBox="0 0 396 69" data-background-color="#293040" preserveAspectRatio="xMidYMid meet" height="261" width="1500" xmlns="http://www.w3.org/2000/svg" xmlns:xlink="http://www.w3.org/1999/xlink"><g id="tight-bounds" transform="matrix(1,0,0,1,0.2400000000000091,0.08077348553587171)"><svg viewBox="0 0 395.52 68.83845302892828" height="68.83845302892828" width="395.52"><g><svg viewBox="0 0 552.0695878501293 96.08519516565768" height="68.83845302892828" width="395.52"><g transform="matrix(1,0,0,1,156.5495878501293,13.279502370941117)"><svg viewBox="0 0 395.52 69.52619042377545" height="69.52619042377545" width="395.52"><g id="textblocktransform"><svg viewBox="0 0 395.52 69.52619042377545" height="69.52619042377545" width="395.52" id="textblock"><g><svg viewBox="0 0 395.52 69.52619042377545" height="69.52619042377545" width="395.52"><g transform="matrix(1,0,0,1,0,0)"><svg width="395.52" viewBox="1.46 -38.38 221.79 38.99" height="69.52619042377545" data-palette-color="#d5b263"><path d="M9.18-2.27L9.18-2.27Q8.13-4.25 7.03-7.29 5.93-10.33 4.93-13.82 3.93-17.31 3.15-20.72 2.37-24.12 1.92-26.9 1.46-29.69 1.46-31.25L1.46-31.25Q1.46-31.88 1.73-32.25L1.73-32.25Q2.29-33.03 3.11-33.87 3.93-34.72 5.05-35.64L5.05-35.64Q5.42-35.94 5.74-35.94L5.74-35.94Q6.05-35.94 6.37-35.64L6.37-35.64Q7.52-34.72 8.33-33.87 9.13-33.03 9.69-32.25L9.69-32.25Q9.96-31.88 9.96-31.18L9.96-31.18 9.96-31.27Q9.96-29.66 10.39-26.92 10.82-24.17 11.51-20.91 12.21-17.65 13.02-14.49 13.84-11.33 14.65-8.86L14.65-8.86 14.79-8.86Q16.11-12.13 17.26-15.97 18.41-19.8 19.41-23.8 20.41-27.81 21.29-31.59L21.29-31.59Q21.56-32.69 22.2-33.12 22.85-33.54 24.24-33.54L24.24-33.54 27.17-33.54Q28.42-33.54 29.03-33.18 29.64-32.81 29.91-31.59L29.91-31.59Q30.54-28.76 31.35-25.61 32.15-22.46 33.02-19.35 33.89-16.24 34.78-13.53 35.67-10.82 36.47-8.86L36.47-8.86 36.62-8.86Q37.65-11.18 38.46-14.33 39.28-17.48 39.86-20.76 40.43-24.05 40.73-26.86 41.04-29.66 41.04-31.27L41.04-31.27 41.04-31.18Q41.04-31.88 41.28-32.25L41.28-32.25Q42.46-33.86 44.51-35.64L44.51-35.64Q44.9-35.94 45.19-35.94L45.19-35.94Q45.46-35.94 45.83-35.64L45.83-35.64Q46.92-34.72 47.71-33.87 48.49-33.03 49.05-32.25L49.05-32.25Q49.29-31.86 49.29-31.2L49.29-31.2Q49.29-29.15 48.83-26.27 48.36-23.39 47.57-20.13 46.78-16.87 45.79-13.62 44.8-10.38 43.71-7.56 42.63-4.74 41.58-2.78L41.58-2.78Q40.7-1.15 40-0.57 39.31 0 38.01 0L38.01 0 35.01 0Q33.91 0 33.17-0.49 32.42-0.98 31.62-2.32L31.62-2.32Q31.01-3.34 30.21-5.2 29.42-7.06 28.63-9.24 27.83-11.43 27.2-13.48 26.56-15.53 26.27-16.94L26.27-16.94Q25.93-18.55 25.7-20.06 25.46-21.56 25.42-22.41L25.42-22.41 25.22-22.41Q25.17-21.56 24.91-20.06 24.66-18.55 24.29-16.94L24.29-16.94Q23.93-15.33 23.32-13.26 22.71-11.18 21.97-9.08 21.24-6.98 20.51-5.2 19.78-3.42 19.14-2.37L19.14-2.37Q18.43-1.17 17.59-0.59 16.75 0 15.26 0L15.26 0 12.5 0Q11.21 0 10.55-0.46 9.89-0.93 9.18-2.27ZM49.29-31.27L49.29-31.27 49.29-31.18 49.29-31.2Q49.29-31.25 49.29-31.27ZM1.46-31.18L1.46-31.27 1.46-31.25 1.46-31.18ZM66.31 0.61L66.31 0.61Q62.18 0.61 59.13-0.72 56.08-2.05 54.39-4.86 52.71-7.67 52.71-12.11L52.71-12.11Q52.71-18.77 56.13-22.19 59.54-25.61 65.21-25.61L65.21-25.61Q68.89-25.61 71.45-24.29 74-22.97 75.33-20.65 76.66-18.33 76.66-15.36L76.66-15.36Q76.66-12.45 75.17-11.3 73.68-10.16 70.82-10.16L70.82-10.16 60.35-10.16Q60.54-7.64 62.19-6.32 63.84-5 66.67-5L66.67-5Q68.92-5 70.27-5.68 71.63-6.35 72.17-6.74L72.17-6.74Q72.63-7.08 73.22-7.06L73.22-7.06Q73.68-7.06 74.55-6.87 75.41-6.69 76.27-6.2L76.27-6.2Q76.88-5.88 76.88-5.32L76.88-5.32Q76.88-5 76.76-4.42L76.76-4.42Q76.68-4.08 76.51-3.43 76.34-2.78 76.07-2.22L76.07-2.22Q75.93-1.95 75.61-1.71L75.61-1.71Q75.12-1.37 74.03-0.81 72.95-0.24 71.07 0.18 69.19 0.61 66.31 0.61ZM60.3-15.16L60.3-15.16 68.26-15.16Q69.5-15.16 69.5-16.31L69.5-16.31Q69.5-18.04 68.42-19.23 67.33-20.41 65.16-20.41L65.16-20.41Q62.79-20.41 61.68-18.9 60.57-17.38 60.3-15.16ZM93.5 0.61L93.5 0.61Q90.35 0.61 88.2 0.15 86.05-0.32 84.59-1 83.12-1.68 82.03-2.37L82.03-2.37 82.03-34.33Q82.03-34.91 82.27-35.23L82.27-35.23Q83.3-36.57 85.27-38.13L85.27-38.13Q85.62-38.38 85.88-38.38L85.88-38.38Q86.2-38.38 86.49-38.13L86.49-38.13Q87.54-37.33 88.26-36.62 88.98-35.91 89.5-35.23L89.5-35.23Q89.74-34.91 89.74-34.33L89.74-34.33 89.74-22.49 89.84-22.49Q90.82-23.73 92.55-24.67 94.28-25.61 97.38-25.61L97.38-25.61Q100.85-25.61 103.1-24.01 105.34-22.41 106.44-19.62 107.54-16.82 107.54-13.21L107.54-13.21Q107.54-9.3 106.25-6.16 104.95-3.03 101.89-1.21 98.82 0.61 93.5 0.61ZM93.82-5.3L93.82-5.3Q96.65-5.3 98.14-7.19 99.63-9.08 99.63-12.6L99.63-12.6Q99.63-16.16 98.3-17.77 96.97-19.38 94.45-19.38L94.45-19.38Q92.43-19.38 91.36-18.55 90.3-17.72 89.74-16.46L89.74-16.46 89.74-6.37Q90.28-5.98 91.27-5.64 92.26-5.3 93.82-5.3ZM126.92 0L119.43 0Q116.91 0 115.61-0.63 114.3-1.27 113.85-2.71 113.4-4.15 113.4-6.54L113.4-6.54 113.4-28.47Q113.4-30.91 113.85-32.34 114.3-33.76 115.61-34.39 116.91-35.01 119.43-35.01L119.43-35.01 126.92-35.01Q132.17-35.01 136.11-33.45 140.06-31.88 142.25-28.16 144.45-24.44 144.45-17.94L144.45-17.94Q144.45-11.45 142.25-7.51 140.06-3.56 136.11-1.78 132.17 0 126.92 0L126.92 0ZM125.14-28.59L124.06-28.59Q122.45-28.59 121.87-27.91 121.28-27.22 121.28-25.56L121.28-25.56 121.28-9.45Q121.28-7.81 121.87-7.1 122.45-6.4 124.06-6.4L124.06-6.4 125.19-6.4Q130.41-6.4 133.28-8.96 136.15-11.52 136.15-17.85L136.15-17.85Q136.15-22.07 134.84-24.4 133.54-26.73 131.07-27.66 128.61-28.59 125.14-28.59L125.14-28.59ZM161.93 0.61L161.93 0.61Q155.78 0.61 152.19-2.66 148.6-5.93 148.6-12.4L148.6-12.4Q148.6-19.04 152.32-22.33 156.04-25.61 162.27-25.61L162.27-25.61Q168.28-25.61 171.89-22.38 175.5-19.14 175.5-12.84L175.5-12.84Q175.5-6.27 171.89-2.83 168.28 0.61 161.93 0.61ZM162.17-5.3L162.17-5.3Q164.86-5.3 166.23-6.97 167.59-8.64 167.59-12.7L167.59-12.7Q167.59-16.55 166.21-18.13 164.83-19.7 162.12-19.7L162.12-19.7Q159.51-19.7 158.01-18.01 156.51-16.31 156.51-12.5L156.51-12.5Q156.51-8.52 157.94-6.91 159.37-5.3 162.17-5.3ZM193.2-25.61L193.2-25.61Q196.11-25.61 197.42-25.13 198.74-24.66 199.08-24.39L199.08-24.39Q199.62-24.05 199.91-23.51L199.91-23.51Q200.09-23.24 200.3-22.58 200.52-21.92 200.62-21.14L200.62-21.14Q200.74-20.53 200.65-20.28 200.55-20.02 200.04-19.65L200.04-19.65Q199.45-19.26 198.75-18.96 198.06-18.65 197.62-18.53L197.62-18.53Q197.25-18.43 197.06-18.48 196.86-18.53 196.52-18.77L196.52-18.77Q196.13-19.04 195.42-19.37 194.71-19.7 193.47-19.7L193.47-19.7Q191.88-19.7 190.45-18.92 189.03-18.14 188.13-16.58 187.24-15.01 187.24-12.67L187.24-12.67Q187.24-9.16 189.09-7.23 190.93-5.3 194.03-5.3L194.03-5.3Q195.62-5.3 196.67-5.63 197.72-5.96 198.33-6.3L198.33-6.3Q198.82-6.57 199.07-6.43 199.33-6.3 199.47-5.96L199.47-5.96 201.26-1.93Q201.53-1.29 200.96-1.03L200.96-1.03Q200.06-0.56 197.99 0.02 195.91 0.61 192.86 0.61L192.86 0.61Q186.73 0.61 183.07-2.65 179.41-5.91 179.41-12.4L179.41-12.4Q179.41-16.55 181.09-19.51 182.78-22.46 185.88-24.04 188.98-25.61 193.2-25.61ZM212.19 0.61L212.19 0.61Q209.58 0.61 207.86 0.17 206.14-0.27 205.1-0.89 204.06-1.51 203.48-2.03L203.48-2.03Q203.04-2.44 203.38-2.95L203.38-2.95 205.87-6.64Q206.41-7.42 207.09-6.74L207.09-6.74Q207.8-6.05 209.01-5.41 210.21-4.76 212.02-4.76L212.02-4.76Q213.63-4.76 214.67-5.31 215.71-5.86 215.71-6.91L215.71-6.91Q215.71-7.64 215.24-8.11 214.78-8.57 213.61-9.06 212.44-9.55 210.34-10.3L210.34-10.3Q207.24-11.43 205.65-13.01 204.06-14.6 204.06-17.65L204.06-17.65Q204.06-20.46 205.61-22.22 207.16-23.97 209.59-24.79 212.02-25.61 214.66-25.61L214.66-25.61Q218-25.61 219.36-24.99 220.71-24.37 221.1-24.02L221.1-24.02Q221.47-23.71 221.62-23.29L221.62-23.29Q221.93-22.34 222.1-20.78L222.1-20.78Q222.2-19.87 221.64-19.58L221.64-19.58Q221.35-19.41 220.71-19.21 220.08-19.02 219.44-18.87 218.81-18.73 218.49-18.73L218.49-18.73Q218.39-18.73 218.28-18.79 218.17-18.85 217.9-19.09L217.9-19.09Q217.59-19.41 216.82-19.82 216.05-20.24 214.71-20.24L214.71-20.24Q213.39-20.24 212.5-19.81 211.61-19.38 211.61-18.31L211.61-18.31Q211.61-17.14 212.74-16.55 213.88-15.97 216.49-15.04L216.49-15.04Q218.54-14.33 220.07-13.49 221.59-12.65 222.42-11.29 223.25-9.94 223.25-7.64L223.25-7.64Q223.25-4.66 221.63-2.84 220-1.03 217.48-0.21 214.95 0.61 212.19 0.61Z" opacity="1" transform="matrix(1,0,0,1,0,0)" fill="#000000" class="wordmark-text-0" data-fill-palette-color="primary" id="text-0"></path></svg></g></svg></g></svg></g></svg></g><g><svg viewBox="0 0 140.1361229196461 96.08519516565768" height="96.08519516565768" width="140.1361229196461"><g><svg xmlns="http://www.w3.org/2000/svg" xmlns:xlink="http://www.w3.org/1999/xlink" version="1.1" x="0" y="0" viewBox="0.7999999999999989 16.3 98.3 67.4" enable-background="new 0 0 100 100" xml:space="preserve" height="96.08519516565768" width="140.1361229196461" class="icon-icon-0" data-fill-palette-color="accent" id="icon-0"><path d="M83.8 70.1c0 1-0.8 1.8-1.8 1.8H60.4c-0.6 1.7-2.2 3-4.1 3H43.6c-1.9 0-3.5-1.2-4.1-3H17.9c-1 0-1.8-0.8-1.8-1.8s0.8-1.8 1.8-1.8h23.2c1 0 1.8 0.8 1.8 1.8v0.4c0 0.4 0.3 0.8 0.8 0.8h12.7c0.4 0 0.8-0.3 0.8-0.8v-0.4c0-1 0.8-1.8 1.8-1.8h23.2C83.1 68.3 83.8 69.1 83.8 70.1zM99.1 70.1v4.7c0 4.9-4 8.9-8.9 8.9H9.7c-4.9 0-8.9-4-8.9-8.9v-4.7c0-1 0.8-1.8 1.8-1.8h5.5V22.1c0-3.2 2.6-5.8 5.8-5.8h72c3.1 0 5.7 2.4 6 5.6 0 0.1 0 0.1 0 0.2v46.2h5.5C98.4 68.3 99.1 69.1 99.1 70.1zM95.6 71.8h-5.5c-1 0-1.8-0.8-1.8-1.8V22.2c-0.2-1.4-1.3-2.4-2.5-2.4h-72c-1.3 0-2.3 1-2.3 2.3v47.9c0 1-0.8 1.8-1.8 1.8H4.4v3c0 3 2.4 5.4 5.4 5.4h80.5c3 0 5.4-2.4 5.4-5.4V71.8zM25.6 43.3c0.3 0.4 0.8 0.6 1.3 0.6 0.4 0 0.8-0.1 1.1-0.4l8.2-7c0.4-0.3 0.6-0.8 0.6-1.3 0-0.5-0.2-1-0.6-1.3l-8.2-7c-0.7-0.6-1.8-0.5-2.5 0.2-0.6 0.7-0.5 1.8 0.2 2.5l6.6 5.6-6.6 5.6C25.1 41.5 25 42.6 25.6 43.3zM42.8 37h30.3c1 0 1.8-0.8 1.8-1.8s-0.8-1.8-1.8-1.8H42.8c-1 0-1.8 0.8-1.8 1.8S41.8 37 42.8 37zM73.1 44.2H35.2c-1 0-1.8 0.8-1.8 1.8s0.8 1.8 1.8 1.8h37.9c1 0 1.8-0.8 1.8-1.8S74 44.2 73.1 44.2zM26.9 58.5h46.1c1 0 1.8-0.8 1.8-1.8S74 55 73.1 55H26.9c-1 0-1.8 0.8-1.8 1.8S26 58.5 26.9 58.5z" fill="#000000" data-fill-palette-color="accent"></path></svg></g></svg></g></svg></g><defs></defs></svg><rect width="395.52" height="68.83845302892828" fill="none" stroke="none" visibility="hidden"></rect></g></svg></g></svg>