<svg xmlns="http://www.w3.org/2000/svg" xml:space="preserve" fill-rule="evenodd" stroke-linejoin="round" stroke-miterlimit="2" clip-rule="evenodd" viewBox="0 0 588 153">
  <path fill-rule="nonzero" d="M198.469 32.124h8.938l13.247 38.969 13.182-38.97h8.81v46.108h-5.916V51.03c0-.965 0-2.508.064-4.695.065-2.186.065-4.501.065-7.009l-13.183 38.905h-6.173l-13.247-38.905v1.415c0 1.157 0 2.83.064 5.144.065 2.315.129 4.051.129 5.145v27.2h-5.98V32.125Z"/>
  <path fill-rule="nonzero" d="M245.411 32.124h7.267l13.247 22.12 13.246-22.12h7.331l-17.426 27.522v18.585h-6.238V59.646L245.41 32.124Z"/>
  <path fill-rule="nonzero" d="M321.152 73.484c-3.472 3.15-7.845 4.758-13.247 4.758-6.688 0-11.896-2.122-15.69-6.43-3.794-4.244-5.723-10.16-5.723-17.62 0-8.102 2.186-14.276 6.494-18.713 3.794-3.794 8.553-5.658 14.405-5.658 7.78 0 13.44 2.507 17.04 7.652 1.994 2.83 3.087 5.723 3.216 8.617H318c-.643-2.187-1.479-3.923-2.444-5.016-1.736-1.994-4.372-3.022-7.845-3.022-3.472 0-6.237 1.414-8.295 4.244-1.994 2.83-3.022 6.88-3.022 12.025 0 5.208 1.028 9.131 3.215 11.703 2.122 2.573 4.887 3.859 8.167 3.859 3.408 0 5.98-1.094 7.78-3.344.965-1.158 1.801-2.958 2.444-5.338h9.581c-.835 5.016-3.022 9.132-6.43 12.283Z"/>
  <path fill-rule="nonzero" d="M352.222 78.242c-6.623 0-11.703-1.8-15.176-5.401-4.694-4.437-7.074-10.804-7.074-19.099 0-8.488 2.38-14.854 7.074-19.099 3.473-3.6 8.553-5.401 15.176-5.401 6.56 0 11.64 1.8 15.112 5.401 4.694 4.245 7.009 10.61 7.009 19.099 0 8.295-2.315 14.662-7.01 19.099-3.472 3.6-8.552 5.401-15.111 5.401Zm9.131-12.41c2.187-2.83 3.344-6.881 3.344-12.09s-1.157-9.196-3.408-12.025c-2.25-2.83-5.273-4.244-9.067-4.244-3.858 0-6.945 1.415-9.196 4.244-2.315 2.83-3.408 6.816-3.408 12.025 0 5.209 1.093 9.26 3.408 12.09 2.251 2.829 5.338 4.244 9.196 4.244 3.794 0 6.816-1.415 9.131-4.245Z"/>
  <path fill-rule="nonzero" d="M387.386 76.956h-9.003v-46.3h14.019l8.424 36.397 8.36-36.396h13.954v46.3h-9.067V45.64c0-.9.064-2.122.064-3.794v-3.73l-8.745 38.84h-9.389l-8.681-38.84v3.73c.064 1.672.064 2.893.064 3.794v31.316Z"/>
  <path fill-rule="nonzero" d="M448.54 60.301h-9.838v16.655h-9.582v-46.3h20.128c4.63 0 8.36 1.222 11.124 3.602 2.766 2.379 4.116 6.109 4.116 11.06 0 5.466-1.35 9.324-4.116 11.575-2.765 2.315-6.687 3.408-11.832 3.408Zm4.502-9.646c1.286-1.093 1.864-2.829 1.864-5.273 0-2.379-.578-4.115-1.864-5.144s-3.023-1.543-5.338-1.543h-9.002v13.632h9.002c2.315 0 4.052-.514 5.338-1.672Z"/>
  <path fill-rule="nonzero" d="M491.175 67.439h-17.106l-3.15 9.517h-10.16l16.526-46.3h10.932l16.397 46.3h-10.481l-2.958-9.517Zm-2.701-7.974-5.788-18.198-5.98 18.198h11.768Z"/>
  <path fill-rule="nonzero" d="M544.687 76.956h-9.646l-18.905-32.86v32.86h-9.003v-46.3h10.096l18.455 32.346V30.657h9.003v46.3Z"/>
  <path fill-rule="nonzero" d="m587.846 30.657-15.433 28.872v17.427h-9.71V59.53l-16.012-28.872h11.382l9.646 20.191 9.196-20.191h10.931Z"/>
  <path fill-rule="nonzero" d="M201.113 91.271c.074-1.325.295-2.32.7-2.946.773-1.104 2.246-1.656 4.381-1.656.221 0 .405.036.626.036.221 0 .479.037.737.037v2.946c-.332 0-.553-.037-.737-.037h-.405c-.994 0-1.583.258-1.767.773-.184.516-.295 1.804-.295 3.866h3.204v2.578h-3.24v16.606h-3.204V96.868h-2.65V94.29h2.65v-3.019Z"/>
  <path fill-rule="nonzero" d="M208.802 94.217h3.057v3.314c.257-.626.883-1.436 1.877-2.357.958-.92 2.1-1.4 3.388-1.4.073 0 .147 0 .294.038.148 0 .405.037.737.073v3.425a2.888 2.888 0 0 0-.516-.074c-.184-.037-.331-.037-.552-.037-1.62 0-2.872.516-3.756 1.583a5.554 5.554 0 0 0-1.288 3.609v11.083h-3.24V94.217Z"/>
  <path fill-rule="nonzero" d="M227.139 93.775c1.362 0 2.688.331 3.976.957 1.29.663 2.247 1.473 2.946 2.504.626.957 1.068 2.099 1.289 3.387.184.884.294 2.32.294 4.272h-14.139c.074 1.951.553 3.498 1.4 4.676.846 1.178 2.209 1.767 4.013 1.767 1.694 0 3.02-.552 4.05-1.657.553-.663.958-1.399 1.215-2.246h3.167c-.074.7-.332 1.51-.81 2.357a8.337 8.337 0 0 1-1.62 2.135c-.958.958-2.173 1.62-3.646 1.952-.773.184-1.656.294-2.614.294-2.43 0-4.455-.883-6.112-2.614-1.657-1.767-2.504-4.197-2.504-7.327 0-3.093.847-5.634 2.54-7.548 1.658-1.915 3.867-2.91 6.555-2.91Zm5.155 8.542c-.11-1.399-.442-2.54-.92-3.387-.884-1.547-2.357-2.32-4.42-2.32-1.509 0-2.724.552-3.755 1.62-.994 1.068-1.546 2.43-1.583 4.087h10.678Z"/>
  <path fill-rule="nonzero" d="M245.776 93.775c1.362 0 2.688.331 3.977.957 1.288.663 2.246 1.473 2.945 2.504.626.957 1.068 2.099 1.289 3.387.184.884.295 2.32.295 4.272h-14.14c.074 1.951.553 3.498 1.4 4.676.847 1.178 2.209 1.767 4.013 1.767 1.694 0 3.02-.552 4.05-1.657.553-.663.958-1.399 1.215-2.246h3.167c-.074.7-.331 1.51-.81 2.357a8.337 8.337 0 0 1-1.62 2.135c-.957.958-2.173 1.62-3.645 1.952-.774.184-1.657.294-2.615.294-2.43 0-4.455-.883-6.112-2.614-1.657-1.767-2.504-4.197-2.504-7.327 0-3.093.847-5.634 2.541-7.548 1.657-1.915 3.866-2.91 6.554-2.91Zm5.155 8.542c-.11-1.399-.442-2.54-.92-3.387-.884-1.547-2.357-2.32-4.419-2.32-1.51 0-2.725.552-3.756 1.62-.994 1.068-1.546 2.43-1.583 4.087h10.678Z"/>
  <path fill-rule="nonzero" d="M256.497 87.074h3.24v26.4h-3.24z"/>
  <path fill-rule="nonzero" d="M270.384 111.375c2.136 0 3.609-.81 4.419-2.43.773-1.62 1.178-3.424 1.178-5.413 0-1.804-.258-3.277-.847-4.381-.92-1.768-2.504-2.651-4.713-2.651-1.988 0-3.424.736-4.308 2.246-.92 1.51-1.362 3.35-1.362 5.486 0 2.025.442 3.756 1.362 5.118.884 1.362 2.32 2.025 4.271 2.025Zm.11-17.71c2.505 0 4.603.81 6.297 2.466 1.73 1.657 2.577 4.087 2.577 7.328 0 3.093-.736 5.67-2.246 7.695-1.51 2.025-3.866 3.02-7.032 3.02-2.651 0-4.75-.884-6.333-2.689-1.547-1.804-2.32-4.197-2.32-7.216 0-3.24.81-5.818 2.467-7.733 1.62-1.914 3.83-2.872 6.59-2.872Z"/>
  <path fill-rule="nonzero" d="M288.175 93.885c1.51 0 2.835.369 3.94 1.105.625.405 1.251 1.03 1.877 1.841v-2.43h2.983v17.526c0 2.43-.332 4.345-1.068 5.781-1.326 2.614-3.866 3.903-7.622 3.903-2.062 0-3.792-.442-5.228-1.4-1.4-.92-2.21-2.356-2.357-4.344h3.277c.147.847.479 1.51.957 1.988.737.737 1.878 1.068 3.425 1.068 2.503 0 4.124-.847 4.897-2.614.442-1.031.663-2.872.626-5.523-.663.994-1.436 1.73-2.357 2.21-.883.478-2.099.699-3.608.699-2.062 0-3.903-.737-5.45-2.21-1.583-1.472-2.356-3.94-2.356-7.327 0-3.24.773-5.744 2.356-7.548 1.584-1.841 3.462-2.725 5.708-2.725Zm5.817 9.868c0-2.356-.478-4.124-1.473-5.302-.994-1.141-2.246-1.73-3.755-1.73-2.283 0-3.83 1.067-4.676 3.203-.442 1.141-.663 2.65-.663 4.492 0 2.172.442 3.83 1.325 4.934.884 1.141 2.062 1.73 3.535 1.73 2.357 0 3.977-1.067 4.934-3.166.515-1.178.773-2.578.773-4.16Z"/>
  <path fill-rule="nonzero" d="M307.656 111.375c2.135 0 3.608-.81 4.418-2.43.773-1.62 1.178-3.424 1.178-5.413 0-1.804-.257-3.277-.847-4.381-.92-1.768-2.503-2.651-4.713-2.651-1.988 0-3.424.736-4.308 2.246-.92 1.51-1.362 3.35-1.362 5.486 0 2.025.442 3.756 1.362 5.118.884 1.362 2.32 2.025 4.272 2.025Zm.11-17.71c2.504 0 4.603.81 6.296 2.466 1.73 1.657 2.578 4.087 2.578 7.328 0 3.093-.737 5.67-2.246 7.695-1.51 2.025-3.866 3.02-7.033 3.02-2.651 0-4.75-.884-6.333-2.689-1.547-1.804-2.32-4.197-2.32-7.216 0-3.24.81-5.818 2.467-7.733 1.62-1.914 3.83-2.872 6.591-2.872Z"/>
  <path fill-rule="nonzero" d="M319.407 109.57h3.756v3.904h-3.756z"/>
  <path fill-rule="nonzero" d="M327.023 94.217h3.203v2.724c.774-.92 1.473-1.62 2.1-2.061 1.067-.737 2.282-1.105 3.644-1.105 1.51 0 2.762.405 3.682 1.141.553.442 1.031 1.068 1.436 1.915.737-1.031 1.584-1.804 2.541-2.283.994-.515 2.062-.773 3.277-.773 2.577 0 4.345.957 5.302 2.835.479.994.736 2.357.736 4.05v12.814h-3.35v-13.366c0-1.289-.332-2.172-.957-2.651-.663-.479-1.436-.736-2.357-.736-1.289 0-2.356.441-3.277 1.288-.92.847-1.4 2.283-1.4 4.271v11.194h-3.276v-12.556c0-1.326-.147-2.283-.479-2.872-.478-.884-1.399-1.362-2.725-1.362-1.251 0-2.356.478-3.35 1.436-.994.957-1.51 2.65-1.51 5.155v10.199h-3.24V94.217Z"/>
  <path fill-rule="nonzero" d="M363.88 93.775c1.362 0 2.688.331 3.977.957 1.288.663 2.246 1.473 2.945 2.504.626.957 1.068 2.099 1.289 3.387.184.884.295 2.32.295 4.272h-14.14c.074 1.951.553 3.498 1.4 4.676.847 1.178 2.209 1.767 4.013 1.767 1.694 0 3.02-.552 4.05-1.657.553-.663.958-1.399 1.215-2.246h3.167c-.074.7-.331 1.51-.81 2.357a8.337 8.337 0 0 1-1.62 2.135c-.957.958-2.173 1.62-3.645 1.952-.774.184-1.657.294-2.615.294-2.43 0-4.455-.883-6.112-2.614-1.657-1.767-2.504-4.197-2.504-7.327 0-3.093.847-5.634 2.541-7.548 1.657-1.915 3.866-2.91 6.554-2.91Zm5.155 8.542c-.11-1.399-.442-2.54-.92-3.387-.884-1.547-2.357-2.32-4.419-2.32-1.51 0-2.725.552-3.756 1.62-.994 1.068-1.546 2.43-1.583 4.087h10.678Z"/>
  <path fill="url(#a)" fill-rule="nonzero" d="M79.5 67.5c-6.333 11.667-16.333 17.667-30 18-13.667.333-25-5.5-34-17.5S6.333 43.5 15 30.5s20.5-19.667 35.5-20c15-.333 25.167 6.167 30.5 19.5 5.333 13.333 4.833 25.833-1.5 37.5Z" transform="matrix(1.92466 0 0 1.92467 -3.537 -12.084)"/>
  <path d="M141.167 113.426c12.547-23.115 13.576-47.88 3.01-74.296C133.493 12.418 113.147-.64 83.097.027c-29.72.662-53.178 13.85-70.35 39.605C-4.6 65.656-4.224 90.675 13.791 114.694c17.86 23.816 40.377 35.343 67.5 34.683 27.282-.666 47.233-12.662 59.876-35.95Zm-4.396-2.387c-11.735 21.62-30.277 32.722-55.604 33.338-25.484.621-46.594-10.305-63.377-32.681C1.161 89.524.895 66.426 16.91 42.408c16.188-24.286 38.281-36.76 66.3-37.381 27.69-.616 46.481 11.346 56.326 35.958 9.962 24.91 9.067 48.261-2.764 70.054Z"/>
  <defs>
    <linearGradient id="a" x1="0" x2="1" y1="0" y2="0" gradientTransform="scale(-110.1665) rotate(23.801 1.814 -2.41)" gradientUnits="userSpaceOnUse">
      <stop offset="0"/>
      <stop offset="1" stop-opacity="0"/>
    </linearGradient>
  </defs>
</svg>
