<?xml version="1.0"?>
<svg width="900" height="900" xmlns="http://www.w3.org/2000/svg" xmlns:svg="http://www.w3.org/2000/svg" preserveAspectRatio="xMidYMid meet" version="1.0">
 <metadata>Created by potrace 1.10, written by Peter Selinger 2001-2011</metadata>
 <g class="layer">
  <title>Layer 1</title>
  <rect fill="#aaffff" height="192" id="svg_5" stroke="#fff" width="319" x="294.33" y="268.33"/>
  <g fill="#fff" id="svg_1" transform="matrix(1 0 0 1 0 0) matrix(0.1 0 0 -0.1 0 0)">
   <path d="m1914,-1847c-12,-2 -36,-20 -55,-39l-34,-35l-3,-1629c-2,-1621 -2,-1630 18,-1650c20,-20 28,-20 2650,-20c2617,0 2630,0 2650,20c20,20 20,33 20,1630c0,1747 3,1647 -55,1700l-27,25l-2571,1c-1415,1 -2581,-1 -2593,-3zm2069,-1134c31,-8 42,-18 58,-52c24,-53 24,-104 0,-142c-10,-17 -115,-128 -235,-247c-178,-179 -216,-222 -216,-245c0,-23 38,-66 221,-248c122,-121 227,-234 235,-252c32,-75 8,-147 -61,-182c-53,-27 -85,-24 -136,11c-35,23 -559,544 -598,594c-16,20 -21,41 -21,82l0,56l312,313c171,172 321,314 332,316c40,8 71,7 109,-4zm1130,-3c18,-8 168,-150 335,-318l302,-304l0,-57c0,-56 -2,-59 -57,-119c-92,-100 -527,-531 -562,-556c-48,-35 -83,-38 -137,-12c-34,17 -50,32 -61,59c-19,45 -19,90 0,127c9,16 115,128 236,249c185,184 221,224 221,248c0,24 -36,64 -219,247c-121,119 -227,232 -236,250c-23,44 -22,86 1,135c28,59 107,81 177,51z" id="svg_2"/>
   <path d="m1733,-5506c-6,-3 -179,-339 -382,-747c-341,-682 -371,-746 -371,-792c0,-60 17,-88 70,-115c39,-20 67,-20 3443,-20l3404,0l39,26c55,37 64,51 64,109c0,45 -14,78 -123,296c-68,134 -128,253 -134,264c-6,11 -25,49 -42,85c-17,36 -38,76 -45,90c-7,14 -28,54 -45,90c-17,36 -38,76 -45,90c-7,14 -28,54 -45,90c-17,36 -38,76 -45,90c-7,14 -28,54 -45,90c-17,36 -37,76 -45,90c-7,14 -26,52 -42,85c-16,33 -37,72 -46,87c-10,14 -18,33 -18,42c0,9 -9,25 -20,36c-20,20 -33,20 -2767,19c-1512,0 -2753,-3 -2760,-5z" id="svg_3"/>
  </g>
 </g>
</svg>